<?xml version="1.0" standalone="no"?>
<!DOCTYPE svg PUBLIC "-//W3C//DTD SVG 20010904//EN"
 "http://www.w3.org/TR/2001/REC-SVG-20010904/DTD/svg10.dtd">
<svg version="1.0" xmlns="http://www.w3.org/2000/svg"
 width="512.000000pt" height="512.000000pt" viewBox="0 0 512.000000 512.000000"
 preserveAspectRatio="xMidYMid meet">

<g transform="translate(0.000000,512.000000) scale(0.100000,-0.100000)"
fill="#ffffff" stroke="none">
<path d="M2394 4926 c-77 -18 -168 -54 -242 -97 -43 -25 -314 -290 -1079
-1054 -1134 -1131 -1067 -1057 -1068 -1195 0 -92 27 -152 98 -216 89 -80 215
-96 322 -41 38 20 285 261 1035 1012 555 555 1001 995 1022 1006 21 10 56 19
78 19 22 0 57 -9 78 -19 21 -11 467 -451 1022 -1006 750 -751 997 -992 1035
-1012 107 -55 233 -39 322 41 69 62 98 124 98 211 0 135 9 123 -446 580 l-409
411 0 454 c0 346 -4 469 -14 512 -31 132 -142 218 -281 218 -118 0 -210 -58
-265 -167 -23 -45 -25 -60 -28 -237 l-4 -189 -306 305 c-169 167 -325 318
-347 335 -54 41 -145 86 -230 113 -90 29 -298 37 -391 16z"/>
<path d="M2510 3789 c-30 -12 -1765 -1742 -1786 -1781 -22 -41 -21 -1334 2
-1428 41 -176 191 -331 373 -384 47 -14 123 -16 518 -16 l463 0 0 650 0 650
480 0 480 0 0 -650 0 -650 463 0 c395 0 471 2 518 16 182 53 332 208 373 384
23 94 24 1387 2 1428 -21 39 -1751 1765 -1783 1779 -34 15 -69 15 -103 2z"/>
</g>
</svg>
